<?xml version="1.0" encoding="utf-8"?>
<!-- Generator: Adobe Illustrator 19.2.1, SVG Export Plug-In . SVG Version: 6.00 Build 0)  -->
<svg version="1.1" id="Layer_1" xmlns="http://www.w3.org/2000/svg" xmlns:xlink="http://www.w3.org/1999/xlink" x="0px" y="0px"
	 viewBox="0 0 64 64" enable-background="new 0 0 64 64" xml:space="preserve">
<g id="icon_96_39_">
</g>
<g id="icon_64_5_">
</g>
<g id="icon_64_19_">
</g>
<g id="icon_64_33_">
</g>
<g id="icon_64_36_">
</g>
<g id="icon_64">
</g>
<g id="icon_96_5_">
	<g id="New_Symbol_4">
	</g>
	<g id="New_Symbol_2">
	</g>
	<g id="New_Symbol_3">
	</g>
</g>
<g id="icon_96_37_">
</g>
<g id="icon_96_38_">
</g>
<g id="New_Symbol_1_">
	<g id="icon_96_13_">
	</g>
</g>
<g id="hollow-96">
	<g id="icon_96_10_">
	</g>
</g>
<g id="hollow-96_1_">
	<g id="icon_96_9_">
	</g>
</g>
<g id="hollow-96_2_">
	<g id="icon_96_11_">
	</g>
</g>
<g id="hollow-96_3_">
	<g id="icon_96_12_">
	</g>
</g>
<g id="hollow-64">
	<g id="icon_64_10_">
	</g>
</g>
<g id="hollow-64_1_">
	<g id="icon_64_9_">
	</g>
</g>
<g id="hollow-64_2_">
	<g id="icon_64_11_">
	</g>
</g>
<g id="hollow-64_3_">
	<g id="icon_64_12_">
	</g>
</g>
<g id="New_Symbol_1_1_">
	<g id="icon_64_13_">
	</g>
</g>
<g id="New_Symbol">
	<g id="icon_96">
	</g>
</g>
<g id="New_Symbol_1">
	<g id="icon_64_35_">
	</g>
</g>
<g id="New_Symbol_5">
	<g>
		<path fill="#363545" d="M47.2,35.6c0,0-4.8-1.4-9.2-2.5c-0.8,2.3-3.5,3.7-6,3.7s-5.2-1.4-6-3.7c-4.4,1.1-9.2,2.5-9.2,2.5
			C11.6,37,8,41.7,8,47.1v6.5c0,1.3,1.1,2.4,2.4,2.4h43.2c1.3,0,2.4-1.1,2.4-2.4v-6.5C56,41.7,52.4,37,47.2,35.6z"/>
		<path fill="#363545" d="M32.2,32c1.1,0,1.7-0.1,3-1.1c1.4-1.1,2.6-2.2,3.6-3.7c1.1-1.6,1.6-3,1.6-4.8v-6c0-4.7-3.7-8.4-8.4-8.4
			s-8.4,3.7-8.4,8.4v6c0,1.8,0.5,3.2,1.6,4.8c1,1.6,2.2,2.6,3.6,3.7c1.3,1,1.9,1.1,3,1.1"/>
	</g>
</g>
</svg>
