<svg id="Layer_1" data-name="Layer 1" xmlns="http://www.w3.org/2000/svg" viewBox="0 0 96 96"><defs><style>.cls-1{fill:#005f9e;}.cls-2{fill:#fff;}.cls-3{fill:#009ad9;}</style></defs><title>checkbox-checked-hover</title><g id="New_Symbol_3" data-name="New Symbol 3"><rect class="cls-1" x="16" y="16" width="64" height="64" rx="5" ry="5"/><polygon class="cls-2" points="64.82 29.32 40.33 54.78 31.16 45.62 25.32 51.67 40.33 66.68 70.68 35.18 64.82 29.32"/><path class="cls-3" d="M75,21V75H21V21H75m0-5H21a5,5,0,0,0-5,5V75a5,5,0,0,0,5,5H75a5,5,0,0,0,5-5V21a5,5,0,0,0-5-5Z"/></g></svg>